<svg width="17" height="36" viewBox="0 0 17 36" fill="none" xmlns="http://www.w3.org/2000/svg">
<path d="M8.43494 6.06044C10.305 6.06044 11.821 4.70376 11.821 3.03022C11.821 1.35668 10.305 0 8.43494 0C6.56484 0 5.04883 1.35668 5.04883 3.03022C5.04883 4.70376 6.56484 6.06044 8.43494 6.06044Z" fill="#010002"/>
<path d="M9.61438 7.50529C8.77067 7.352 7.85333 7.35873 7.02465 7.53353C1.39516 8.12384 -0.432757 13.955 0.0833865 18.4012C0.307274 20.3234 3.69338 20.3436 3.46724 18.4012C3.27942 16.7808 3.35981 14.3356 4.32222 12.5976C4.32222 14.7101 4.32222 16.8225 4.32222 18.9343C4.32222 19.009 4.33049 19.0789 4.33424 19.1508C4.33199 19.1851 4.32297 19.214 4.32297 19.249C4.32297 24.2774 4.31321 29.3038 4.08105 34.3282C3.97813 36.5617 7.84807 36.5529 7.95025 34.3282C8.13206 30.3903 8.17789 26.4504 8.18841 22.5098C8.37173 22.5206 8.55505 22.5206 8.73836 22.5112C8.74963 26.4517 8.79396 30.3916 8.97427 34.3282C9.0772 36.5529 12.9471 36.5617 12.8435 34.3282C12.6113 29.3038 12.6031 24.2774 12.6031 19.249C12.6031 19.093 12.5798 18.9511 12.5444 18.8147C12.5392 16.6316 12.446 14.4465 12.4746 12.2648C13.6271 14.0108 13.7323 16.6739 13.5324 18.3998C13.3055 20.3409 16.6924 20.3214 16.9163 18.3998C17.4444 13.8616 15.5286 7.87911 9.61438 7.50529Z" fill="#010002"/>
</svg>
