<svg width="14" height="30" viewBox="0 0 14 30" fill="none" xmlns="http://www.w3.org/2000/svg">
<path d="M6.94676 5.05037C8.48684 5.05037 9.73532 3.9198 9.73532 2.52518C9.73532 1.13056 8.48684 0 6.94676 0C5.40668 0 4.1582 1.13056 4.1582 2.52518C4.1582 3.9198 5.40668 5.05037 6.94676 5.05037Z" fill="#010002"/>
<path d="M7.91772 6.25442C7.2229 6.12667 6.46745 6.13228 5.785 6.27795C1.14895 6.76988 -0.356388 11.6292 0.0686712 15.3343C0.253049 16.9362 3.04161 16.953 2.85538 15.3343C2.7007 13.984 2.7669 11.9463 3.55948 10.498C3.55948 12.2584 3.55948 14.0188 3.55948 15.7786C3.55948 15.8408 3.56628 15.8991 3.56938 15.959C3.56752 15.9876 3.56009 16.0117 3.56009 16.0408C3.56009 20.2312 3.55205 24.4198 3.36087 28.6068C3.2761 30.4681 6.46312 30.4608 6.54726 28.6068C6.69699 25.3252 6.73473 22.042 6.7434 18.7582C6.89436 18.7672 7.04533 18.7672 7.1963 18.7593C7.20558 22.0431 7.24208 25.3264 7.39058 28.6068C7.47534 30.4608 10.6624 30.4681 10.577 28.6068C10.3858 24.4198 10.379 20.2312 10.379 16.0408C10.379 15.9108 10.3598 15.7926 10.3307 15.6789C10.3264 13.8597 10.2497 12.0388 10.2732 10.2206C11.2223 11.6757 11.3089 13.895 11.1443 15.3332C10.9575 16.9507 13.7467 16.9345 13.931 15.3332C14.366 11.5513 12.7883 6.56593 7.91772 6.25442Z" fill="#010002"/>
</svg>
