<svg width="25" height="50" viewBox="0 0 25 50" fill="none" xmlns="http://www.w3.org/2000/svg">
<g opacity="0.1">
<path d="M24.8755 27.1385L19.8995 12.5287C19.5767 11.581 18.6805 11.0883 17.7479 11.0883H7.25211C6.31952 11.0883 5.4234 11.581 5.10049 12.5287L0.124458 27.1385C-0.238537 28.2042 0.212997 29.4138 1.21186 29.8827C1.49942 30.0176 1.79771 30.0804 2.09 30.0804C2.95913 30.0804 3.77256 29.5223 4.07621 28.6309L6.53764 21.4043V22.8969L3.40578 33.8446C3.32071 34.4879 3.62878 35.1405 4.23025 35.4594C4.44962 35.5756 4.69678 35.6259 4.94346 35.6259H6.57962V47.329C6.57962 48.7277 7.62457 49.9313 8.98296 49.997C10.4332 50.0673 11.6305 48.8785 11.6305 47.4022V36.5203C11.6305 36.0263 12.0198 35.6259 12.4999 35.6259C12.9802 35.6259 13.3694 36.0264 13.3694 36.5203V47.3288C13.3694 48.7275 14.4145 49.9311 15.7727 49.9969C17.223 50.0672 18.4202 48.8784 18.4202 47.402V35.6256H20.0564C20.3032 35.6256 20.5502 35.5753 20.7696 35.459C21.3709 35.1402 21.6791 34.4876 21.594 33.8442L18.4623 22.8967V21.4042L20.9238 28.6307C21.2274 29.5221 22.0408 30.0802 22.91 30.0802C23.2021 30.0802 23.5007 30.0174 23.7881 29.8823C24.7871 29.4138 25.2385 28.2042 24.8755 27.1385Z" fill="black"/>
<path d="M12.5331 9.41408C15.0605 9.41408 17.1092 7.30666 17.1092 4.70704C17.1092 2.10741 15.0605 0 12.5331 0C10.0058 0 7.95703 2.10741 7.95703 4.70704C7.95703 7.30666 10.0058 9.41408 12.5331 9.41408Z" fill="black"/>
</g>
</svg>
