<svg width="20" height="49" viewBox="0 0 20 49" fill="none" xmlns="http://www.w3.org/2000/svg">
<path d="M9.9236 8.24893C12.1237 8.24893 13.9073 6.40235 13.9073 4.12447C13.9073 1.84659 12.1237 0 9.9236 0C7.72349 0 5.93994 1.84659 5.93994 4.12447C5.93994 6.40235 7.72349 8.24893 9.9236 8.24893Z" fill="#010002"/>
<path d="M11.311 10.2155C10.3184 10.0069 9.23921 10.016 8.26429 10.254C1.64136 11.0575 -0.509125 18.9943 0.0981018 25.0461C0.361499 27.6624 4.34516 27.6898 4.07911 25.0461C3.85814 22.8406 3.95271 19.5123 5.08497 17.1467C5.08497 20.022 5.08497 22.8973 5.08497 25.7717C5.08497 25.8733 5.09469 25.9685 5.09911 26.0664C5.09646 26.1131 5.08585 26.1524 5.08585 26.2C5.08585 33.0442 5.07436 39.8857 4.80124 46.7244C4.68015 49.7645 9.23303 49.7526 9.35323 46.7244C9.56713 41.3646 9.62105 36.0019 9.63342 30.6384C9.84909 30.653 10.0648 30.653 10.2804 30.6402C10.2937 36.0038 10.3458 41.3664 10.558 46.7244C10.6791 49.7526 15.2319 49.7645 15.11 46.7244C14.8368 39.8857 14.8271 33.0442 14.8271 26.2C14.8271 25.9877 14.7997 25.7946 14.7582 25.6089C14.752 22.6374 14.6424 19.6633 14.676 16.6937C16.0318 19.0703 16.1556 22.6951 15.9205 25.0442C15.6535 27.6862 19.6381 27.6596 19.9015 25.0442C20.5229 18.8671 18.269 10.7244 11.311 10.2155Z" fill="#010002"/>
</svg>
