<svg width="18" height="36" viewBox="0 0 18 36" fill="none" xmlns="http://www.w3.org/2000/svg">
<path d="M17.9104 19.5397L14.3276 9.0207C14.0953 8.33833 13.4499 7.98358 12.7785 7.98358H5.22152C4.55006 7.98358 3.90485 8.33833 3.67235 9.0207L0.0896096 19.5397C-0.171747 20.3071 0.153358 21.178 0.872543 21.5155C1.07958 21.6127 1.29435 21.6579 1.5048 21.6579C2.13058 21.6579 2.71624 21.2561 2.93487 20.6142L4.7071 15.4111V16.4858L2.45216 24.3681C2.39091 24.8313 2.61272 25.3012 3.04578 25.5308C3.20373 25.6144 3.38168 25.6507 3.55929 25.6507H4.73732V34.0769C4.73732 35.084 5.48969 35.9505 6.46773 35.9979C7.51191 36.0485 8.37393 35.1925 8.37393 34.1296V26.2946C8.37393 25.9389 8.65426 25.6507 8.99994 25.6507C9.34572 25.6507 9.62594 25.939 9.62594 26.2946V34.0768C9.62594 35.0838 10.3784 35.9504 11.3563 35.9978C12.4005 36.0484 13.2625 35.1924 13.2625 34.1295V25.6504H14.4406C14.6183 25.6504 14.7961 25.6142 14.9541 25.5305C15.387 25.301 15.609 24.8311 15.5477 24.3679L13.2929 16.4856V15.411L15.0651 20.6141C15.2837 21.2559 15.8694 21.6578 16.4952 21.6578C16.7055 21.6578 16.9205 21.6126 17.1274 21.5153C17.8467 21.178 18.1717 20.3071 17.9104 19.5397Z" fill="black"/>
<path d="M9.0238 6.77813C10.8435 6.77813 12.3186 5.2608 12.3186 3.38907C12.3186 1.51734 10.8435 0 9.0238 0C7.20414 0 5.729 1.51734 5.729 3.38907C5.729 5.2608 7.20414 6.77813 9.0238 6.77813Z" fill="black"/>
</svg>
