<svg width="13" height="30" viewBox="0 0 13 30" fill="none" xmlns="http://www.w3.org/2000/svg">
<g opacity="0.1">
<path d="M12.9353 16.2831L10.3477 7.51725C10.1799 6.94861 9.71384 6.65298 9.22889 6.65298H3.77109C3.28615 6.65298 2.82017 6.94861 2.65226 7.51725L0.064718 16.2831C-0.124039 16.9226 0.110758 17.6483 0.63017 17.9296C0.779699 18.0106 0.934808 18.0483 1.0868 18.0483C1.53875 18.0483 1.96173 17.7134 2.11963 17.1785L3.39957 12.8426V13.7381L1.771 20.3068C1.72677 20.6928 1.88697 21.0843 2.19973 21.2756C2.3138 21.3454 2.44232 21.3756 2.5706 21.3756H3.4214V28.3974C3.4214 29.2366 3.96478 29.9588 4.67114 29.9982C5.42527 30.0404 6.04784 29.3271 6.04784 28.4413V21.9122C6.04784 21.6158 6.2503 21.3756 6.49995 21.3756C6.74969 21.3756 6.95207 21.6159 6.95207 21.9122V28.3973C6.95207 29.2365 7.49553 29.9587 8.20181 29.9981C8.95593 30.0403 9.57851 29.327 9.57851 28.4412V21.3754H10.4293C10.5577 21.3754 10.6861 21.3452 10.8002 21.2754C11.1129 21.0841 11.2731 20.6926 11.2289 20.3066L9.60042 13.738V12.8425L10.8804 17.1784C11.0383 17.7133 11.4612 18.0482 11.9132 18.0482C12.0651 18.0482 12.2204 18.0105 12.3698 17.9294C12.8893 17.6483 13.124 16.9226 12.9353 16.2831Z" fill="black"/>
<path d="M6.51727 5.64845C7.83147 5.64845 8.89685 4.384 8.89685 2.82422C8.89685 1.26445 7.83147 0 6.51727 0C5.20307 0 4.1377 1.26445 4.1377 2.82422C4.1377 4.384 5.20307 5.64845 6.51727 5.64845Z" fill="black"/>
</g>
</svg>
